# xmcd
#
# Track frame offsets:
#	182
#	14420
#	27002
#	41867
#	57927
#	75540
#	88995
#	100145
#	117162
#	135987
#	149992
#	164362
#	178332
#	199245
#	213587
#	226430
#	237217
#	253967
#	267945
#	286317
#
# Disc length: 4025 seconds
#
# Revision: 2
# Processed by: cddbd v1.5.2PL0 Copyright (c) Steve Scherf et al.
# Submitted via: EZCDAudioConverter 6.0.5.1
#
DISCID=2e0fb714
DTITLE=Sylvie Caron - 20 Belles Chansons Country
DYEAR=1900
DGENRE=Pop/Rock/Country
TTITLE0=Souvent Elle Pleure
TTITLE1=J'aime Chanter
TTITLE2=Laisse Ton Coeur Me Parler
TTITLE3=Fernande La Gaspésienne
TTITLE4=Sur Mon Nuage
TTITLE5=L' Homme du Passé
TTITLE6=Les Airs d'Autrefois
TTITLE7=Pourquoi Dis-Tu ?
TTITLE8=Les Parents N'ont Qu'une Vie
TTITLE9=Seul La Nuit
TTITLE10=Ce N'est Qu'un Rêve
TTITLE11=Si Tu Parts
TTITLE12=La Voix De Ton Coeur
TTITLE13=Je Sais, Je Vais Pleurer
TTITLE14=Les Cowboys du Québec
TTITLE15=Jambalaya
TTITLE16=C'est mon Histoire
TTITLE17=Je N'y Peux Rien
TTITLE18=L'enfant Que J'ai Perdu
TTITLE19=Ce Soir, Je Quitte Mes Parents
EXTD=
EXTT0=
EXTT1=
EXTT2=
EXTT3=
EXTT4=
EXTT5=
EXTT6=
EXTT7=
EXTT8=
EXTT9=
EXTT10=
EXTT11=
EXTT12=
EXTT13=
EXTT14=
EXTT15=
EXTT16=
EXTT17=
EXTT18=
EXTT19=
PLAYORDER=
